<svg width="2280" height="778" viewBox="0 0 2280 778" fill="none" xmlns="http://www.w3.org/2000/svg">
<path d="M345.19 470.249H136.416L201.032 308.469H409.709L345.19 470.249Z" fill="#6772A2"/>
<path d="M423.214 271.78H214.537C233.61 224.147 266.479 183.297 308.927 154.472C351.376 125.647 401.468 110.161 452.778 110H487.637L423.214 271.78Z" fill="#BE4E9C"/>
<path d="M199.778 668.526C183.925 668.604 168.298 664.768 154.283 657.357C140.269 649.946 128.301 639.19 119.442 626.043C110.582 612.897 105.105 597.766 103.497 581.995C101.889 566.223 104.199 550.299 110.222 535.635L121.779 506.746H330.553L290.396 607.858C283.071 625.86 270.527 641.258 254.378 652.069C238.228 662.881 219.212 668.613 199.778 668.526Z" fill="#BE4E9C"/>
<path d="M454.682 308.469L389.97 470.249H489.734C606.833 470.249 702.843 408.233 742.806 308.469H454.682Z" fill="#BE4E9C"/>
<path d="M632.255 110H533.833L469.319 271.78H757.635C785.85 201.483 714.686 110 632.255 110Z" fill="#7C86B4"/>
<path d="M424.539 271.78H215.862C234.935 224.147 267.804 183.297 310.252 154.472C352.701 125.647 402.793 110.161 454.103 110H488.962L424.539 271.78Z" fill="url(#paint0_linear)"/>
<path d="M454.682 308.469L389.97 470.249H489.734C606.833 470.249 702.843 408.233 742.806 308.469H454.682Z" fill="url(#paint1_linear)"/>
<path d="M199.778 668.526C183.925 668.604 168.298 664.768 154.283 657.357C140.269 649.946 128.301 639.19 119.442 626.043C110.582 612.897 105.105 597.766 103.497 581.995C101.889 566.223 104.199 550.299 110.222 535.635L121.779 506.746H330.553L290.396 607.858C283.071 625.86 270.527 641.258 254.378 652.069C238.228 662.881 219.212 668.613 199.778 668.526Z" fill="url(#paint2_linear)"/>
<path d="M345.19 470.249H136.416L201.032 308.469H409.709L345.19 470.249Z" fill="url(#paint3_linear)"/>
<path d="M632.255 110H533.833L469.319 271.78H757.635C785.85 201.483 714.686 110 632.255 110Z" fill="url(#paint4_linear)"/>
<path d="M1088.07 355.586C1088.07 377.949 1080.74 395.088 1066.1 407.002C1051.45 418.916 1030.6 424.873 1003.55 424.873H981.281V505H946.271V290.84H1007.94C1034.7 290.84 1054.72 296.309 1068 307.246C1081.38 318.184 1088.07 334.297 1088.07 355.586ZM981.281 395.43H999.885C1017.85 395.43 1031.04 392.305 1039.44 386.055C1047.83 379.805 1052.03 370.039 1052.03 356.758C1052.03 344.453 1048.27 335.273 1040.75 329.219C1033.23 323.164 1021.52 320.137 1005.6 320.137H981.281V395.43ZM1284.71 505H1250.14V405.391C1250.14 392.891 1247.6 383.564 1242.52 377.412C1237.54 371.26 1229.58 368.184 1218.64 368.184C1204.19 368.184 1193.55 372.529 1186.71 381.221C1179.97 389.814 1176.6 404.268 1176.6 424.58V505H1142.18V277.07H1176.6V334.932C1176.6 344.209 1176.02 354.121 1174.85 364.668H1177.04C1181.73 356.855 1188.22 350.801 1196.53 346.504C1204.92 342.207 1214.69 340.059 1225.82 340.059C1265.08 340.059 1284.71 359.834 1284.71 399.385V505ZM1382.03 505H1347.61V342.988H1382.03V505ZM1345.56 300.068C1345.56 293.916 1347.22 289.18 1350.54 285.859C1353.96 282.539 1358.79 280.879 1365.04 280.879C1371.1 280.879 1375.78 282.539 1379.1 285.859C1382.52 289.18 1384.23 293.916 1384.23 300.068C1384.23 305.928 1382.52 310.566 1379.1 313.984C1375.78 317.305 1371.1 318.965 1365.04 318.965C1358.79 318.965 1353.96 317.305 1350.54 313.984C1347.22 310.566 1345.56 305.928 1345.56 300.068ZM1588.93 505H1554.36V405.391C1554.36 392.891 1551.82 383.564 1546.74 377.412C1541.76 371.26 1533.8 368.184 1522.86 368.184C1508.31 368.184 1497.67 372.48 1490.93 381.074C1484.19 389.668 1480.82 404.072 1480.82 424.287V505H1446.4V342.988H1473.35L1478.19 364.229H1479.94C1484.83 356.514 1491.76 350.557 1500.74 346.357C1509.73 342.158 1519.69 340.059 1530.63 340.059C1569.49 340.059 1588.93 359.834 1588.93 399.385V505ZM1706.47 507.93C1686.25 507.93 1670.48 500.605 1659.15 485.957C1647.82 471.309 1642.16 450.752 1642.16 424.287C1642.16 397.725 1647.87 377.07 1659.3 362.324C1670.82 347.48 1686.74 340.059 1707.05 340.059C1728.34 340.059 1744.55 347.92 1755.69 363.643H1757.44C1755.78 352.021 1754.95 342.842 1754.95 336.104V277.07H1789.52V505H1762.57L1756.56 483.76H1754.95C1743.92 499.873 1727.76 507.93 1706.47 507.93ZM1715.7 480.098C1729.86 480.098 1740.16 476.143 1746.6 468.232C1753.05 460.225 1756.37 447.285 1756.56 429.414V424.58C1756.56 404.17 1753.24 389.668 1746.6 381.074C1739.96 372.48 1729.56 368.184 1715.4 368.184C1703.29 368.184 1693.97 373.115 1687.42 382.979C1680.88 392.744 1677.61 406.709 1677.61 424.873C1677.61 442.842 1680.78 456.562 1687.13 466.035C1693.48 475.41 1703 480.098 1715.7 480.098ZM1924.49 507.93C1899.3 507.93 1879.57 500.605 1865.31 485.957C1851.15 471.211 1844.07 450.947 1844.07 425.166C1844.07 398.701 1850.67 377.9 1863.85 362.764C1877.03 347.627 1895.15 340.059 1918.2 340.059C1939.58 340.059 1956.48 346.553 1968.88 359.541C1981.28 372.529 1987.48 390.4 1987.48 413.154V431.758H1879.52C1880.01 447.48 1884.26 459.59 1892.27 468.086C1900.28 476.484 1911.55 480.684 1926.11 480.684C1935.68 480.684 1944.56 479.805 1952.77 478.047C1961.07 476.191 1969.95 473.164 1979.43 468.965V496.943C1971.03 500.947 1962.53 503.779 1953.94 505.439C1945.34 507.1 1935.53 507.93 1924.49 507.93ZM1918.2 366.133C1907.26 366.133 1898.47 369.6 1891.83 376.533C1885.29 383.467 1881.38 393.574 1880.11 406.855H1953.64C1953.45 393.477 1950.23 383.369 1943.98 376.533C1937.73 369.6 1929.13 366.133 1918.2 366.133ZM2123.77 340.059C2130.71 340.059 2136.42 340.547 2140.91 341.523L2137.54 373.604C2132.66 372.432 2127.58 371.846 2122.31 371.846C2108.54 371.846 2097.36 376.338 2088.76 385.322C2080.27 394.307 2076.02 405.977 2076.02 420.332V505H2041.59V342.988H2068.55L2073.09 371.553H2074.85C2080.22 361.885 2087.2 354.219 2095.79 348.555C2104.48 342.891 2113.81 340.059 2123.77 340.059Z" fill="#293343"/>
<defs>
<linearGradient id="paint0_linear" x1="308.443" y1="156.431" x2="357.47" y2="296.893" gradientUnits="userSpaceOnUse">
<stop stop-color="#BE4E9C" stop-opacity="0"/>
<stop offset="1" stop-color="#8E5598"/>
</linearGradient>
<linearGradient id="paint1_linear" x1="454.539" y1="308.469" x2="489.403" y2="473.497" gradientUnits="userSpaceOnUse">
<stop stop-color="#8E5598"/>
<stop offset="1" stop-color="#BE4E9C" stop-opacity="0"/>
</linearGradient>
<linearGradient id="paint2_linear" x1="122.114" y1="506.746" x2="207.427" y2="675.98" gradientUnits="userSpaceOnUse">
<stop stop-color="#8E5598"/>
<stop offset="1" stop-color="#BE4E9C" stop-opacity="0"/>
</linearGradient>
<linearGradient id="paint3_linear" x1="136.416" y1="470.249" x2="347.125" y2="470.249" gradientUnits="userSpaceOnUse">
<stop stop-color="#535F95"/>
<stop offset="1" stop-color="#6772A2" stop-opacity="0"/>
</linearGradient>
<linearGradient id="paint4_linear" x1="533.542" y1="110" x2="592.003" y2="303.208" gradientUnits="userSpaceOnUse">
<stop stop-color="#7C86B4" stop-opacity="0"/>
<stop offset="1" stop-color="#515D94"/>
</linearGradient>
</defs>
</svg>
